  <diagram id="peEkl4aIgAbrXeQ6plFa" name="Page-1">
    <mxGraphModel dx="1050" dy="562" grid="1" gridSize="10" guides="1" tooltips="1" connect="1" arrows="1" fold="1" page="1" pageScale="1" pageWidth="850" pageHeight="1100" math="0" shadow="0">
      <root>
        <mxCell id="0" />
        <mxCell id="1" parent="0" />
        <mxCell id="Hqp2iDPqweFUYbqCkUHq-1" value="Turn" style="swimlane;fontStyle=1;align=center;verticalAlign=top;childLayout=stackLayout;horizontal=1;startSize=26;horizontalStack=0;resizeParent=1;resizeParentMax=0;resizeLast=0;collapsible=1;marginBottom=0;whiteSpace=wrap;html=1;" parent="1" vertex="1">
          <mxGeometry x="340" y="260" width="170" height="110" as="geometry" />
        </mxCell>
        <mxCell id="Hqp2iDPqweFUYbqCkUHq-2" value="-&amp;nbsp; rolls: List&amp;lt;Roll&amp;gt; [RO]&lt;div&gt;+&amp;nbsp; turnScore: int:&lt;/div&gt;&lt;div&gt;+&amp;nbsp; finished: boolean [RO}&lt;/div&gt;" style="text;strokeColor=none;fillColor=none;align=left;verticalAlign=top;spacingLeft=4;spacingRight=4;overflow=hidden;rotatable=0;points=[[0,0.5],[1,0.5]];portConstraint=eastwest;whiteSpace=wrap;html=1;" parent="Hqp2iDPqweFUYbqCkUHq-1" vertex="1">
          <mxGeometry y="26" width="170" height="52" as="geometry" />
        </mxCell>
        <mxCell id="Hqp2iDPqweFUYbqCkUHq-3" value="" style="line;strokeWidth=1;fillColor=none;align=left;verticalAlign=middle;spacingTop=-1;spacingLeft=3;spacingRight=3;rotatable=0;labelPosition=right;points=[];portConstraint=eastwest;strokeColor=inherit;" parent="Hqp2iDPqweFUYbqCkUHq-1" vertex="1">
          <mxGeometry y="78" width="170" height="8" as="geometry" />
        </mxCell>
        <mxCell id="cb0f6lu0sOfG4pyCu2vx-6" value="&lt;div&gt;+ startNextTurn(Game): void&lt;/div&gt;" style="text;strokeColor=none;fillColor=none;align=left;verticalAlign=top;spacingLeft=4;spacingRight=4;overflow=hidden;rotatable=0;points=[[0,0.5],[1,0.5]];portConstraint=eastwest;whiteSpace=wrap;html=1;" parent="Hqp2iDPqweFUYbqCkUHq-1" vertex="1">
          <mxGeometry y="86" width="170" height="24" as="geometry" />
        </mxCell>
        <mxCell id="Hqp2iDPqweFUYbqCkUHq-13" value="User" style="swimlane;fontStyle=1;align=center;verticalAlign=top;childLayout=stackLayout;horizontal=1;startSize=26;horizontalStack=0;resizeParent=1;resizeParentMax=0;resizeLast=0;collapsible=1;marginBottom=0;whiteSpace=wrap;html=1;" parent="1" vertex="1">
          <mxGeometry x="140" y="220" width="160" height="104" as="geometry" />
        </mxCell>
        <mxCell id="Hqp2iDPqweFUYbqCkUHq-14" value="+&amp;nbsp; userName:string [RO]&lt;div&gt;+&amp;nbsp; gameName:string&lt;br&gt;&lt;div&gt;&lt;br&gt;&lt;/div&gt;&lt;/div&gt;" style="text;strokeColor=none;fillColor=none;align=left;verticalAlign=top;spacingLeft=4;spacingRight=4;overflow=hidden;rotatable=0;points=[[0,0.5],[1,0.5]];portConstraint=eastwest;whiteSpace=wrap;html=1;" parent="Hqp2iDPqweFUYbqCkUHq-13" vertex="1">
          <mxGeometry y="26" width="160" height="44" as="geometry" />
        </mxCell>
        <mxCell id="Hqp2iDPqweFUYbqCkUHq-15" value="" style="line;strokeWidth=1;fillColor=none;align=left;verticalAlign=middle;spacingTop=-1;spacingLeft=3;spacingRight=3;rotatable=0;labelPosition=right;points=[];portConstraint=eastwest;strokeColor=inherit;" parent="Hqp2iDPqweFUYbqCkUHq-13" vertex="1">
          <mxGeometry y="70" width="160" height="8" as="geometry" />
        </mxCell>
        <mxCell id="Hqp2iDPqweFUYbqCkUHq-16" value="saveChanges(user): void" style="text;strokeColor=none;fillColor=none;align=left;verticalAlign=top;spacingLeft=4;spacingRight=4;overflow=hidden;rotatable=0;points=[[0,0.5],[1,0.5]];portConstraint=eastwest;whiteSpace=wrap;html=1;" parent="Hqp2iDPqweFUYbqCkUHq-13" vertex="1">
          <mxGeometry y="78" width="160" height="26" as="geometry" />
        </mxCell>
        <mxCell id="Hqp2iDPqweFUYbqCkUHq-17" value="Roll" style="swimlane;fontStyle=1;align=center;verticalAlign=top;childLayout=stackLayout;horizontal=1;startSize=26;horizontalStack=0;resizeParent=1;resizeParentMax=0;resizeLast=0;collapsible=1;marginBottom=0;whiteSpace=wrap;html=1;" parent="1" vertex="1">
          <mxGeometry x="610" y="251" width="200" height="134" as="geometry" />
        </mxCell>
        <mxCell id="Hqp2iDPqweFUYbqCkUHq-18" value="&lt;div&gt;-&amp;nbsp; numberDice: int [RO]&lt;/div&gt;+ diceValues: list of int [RO]&lt;div&gt;+ scoreValues: list&amp;lt;Integer&amp;gt;&lt;/div&gt;&lt;div&gt;&lt;span style=&quot;background-color: transparent; color: light-dark(rgb(0, 0, 0), rgb(255, 255, 255));&quot;&gt;+ farkle: boolean [RO]&lt;/span&gt;&lt;/div&gt;" style="text;strokeColor=none;fillColor=none;align=left;verticalAlign=top;spacingLeft=4;spacingRight=4;overflow=hidden;rotatable=0;points=[[0,0.5],[1,0.5]];portConstraint=eastwest;whiteSpace=wrap;html=1;" parent="Hqp2iDPqweFUYbqCkUHq-17" vertex="1">
          <mxGeometry y="26" width="200" height="74" as="geometry" />
        </mxCell>
        <mxCell id="Hqp2iDPqweFUYbqCkUHq-19" value="" style="line;strokeWidth=1;fillColor=none;align=left;verticalAlign=middle;spacingTop=-1;spacingLeft=3;spacingRight=3;rotatable=0;labelPosition=right;points=[];portConstraint=eastwest;strokeColor=inherit;" parent="Hqp2iDPqweFUYbqCkUHq-17" vertex="1">
          <mxGeometry y="100" width="200" height="8" as="geometry" />
        </mxCell>
        <mxCell id="Hqp2iDPqweFUYbqCkUHq-20" value="+ startNextRoll(Turn): void&lt;div&gt;&lt;div&gt;&lt;br&gt;&lt;/div&gt;&lt;/div&gt;" style="text;strokeColor=none;fillColor=none;align=left;verticalAlign=top;spacingLeft=4;spacingRight=4;overflow=hidden;rotatable=0;points=[[0,0.5],[1,0.5]];portConstraint=eastwest;whiteSpace=wrap;html=1;" parent="Hqp2iDPqweFUYbqCkUHq-17" vertex="1">
          <mxGeometry y="108" width="200" height="26" as="geometry" />
        </mxCell>
        <mxCell id="Hqp2iDPqweFUYbqCkUHq-21" value="Game" style="swimlane;fontStyle=1;align=center;verticalAlign=top;childLayout=stackLayout;horizontal=1;startSize=26;horizontalStack=0;resizeParent=1;resizeParentMax=0;resizeLast=0;collapsible=1;marginBottom=0;whiteSpace=wrap;html=1;" parent="1" vertex="1">
          <mxGeometry x="470" y="20" width="160" height="142" as="geometry" />
        </mxCell>
        <mxCell id="Hqp2iDPqweFUYbqCkUHq-22" value="+ players: List&amp;lt;User&amp;gt; [RO]&lt;div&gt;+ userTurn: User&lt;/div&gt;&lt;div&gt;+ finished: boolean [RO]&lt;/div&gt;&lt;div&gt;+ userWinner: User [RO]&lt;/div&gt;&lt;div&gt;&lt;br&gt;&lt;div&gt;&lt;br&gt;&lt;/div&gt;&lt;/div&gt;" style="text;strokeColor=none;fillColor=none;align=left;verticalAlign=top;spacingLeft=4;spacingRight=4;overflow=hidden;rotatable=0;points=[[0,0.5],[1,0.5]];portConstraint=eastwest;whiteSpace=wrap;html=1;" parent="Hqp2iDPqweFUYbqCkUHq-21" vertex="1">
          <mxGeometry y="26" width="160" height="64" as="geometry" />
        </mxCell>
        <mxCell id="cb0f6lu0sOfG4pyCu2vx-16" value="" style="endArrow=diamondThin;endFill=1;endSize=24;html=1;rounded=0;entryX=1.013;entryY=0.835;entryDx=0;entryDy=0;entryPerimeter=0;exitX=0.458;exitY=-0.008;exitDx=0;exitDy=0;exitPerimeter=0;" parent="Hqp2iDPqweFUYbqCkUHq-21" source="Hqp2iDPqweFUYbqCkUHq-1" edge="1">
          <mxGeometry width="160" relative="1" as="geometry">
            <mxPoint x="108" y="79.5" as="sourcePoint" />
            <mxPoint y="79.5" as="targetPoint" />
            <Array as="points">
              <mxPoint x="-57" y="80" />
            </Array>
          </mxGeometry>
        </mxCell>
        <mxCell id="Hqp2iDPqweFUYbqCkUHq-23" value="" style="line;strokeWidth=1;fillColor=none;align=left;verticalAlign=middle;spacingTop=-1;spacingLeft=3;spacingRight=3;rotatable=0;labelPosition=right;points=[];portConstraint=eastwest;strokeColor=inherit;" parent="Hqp2iDPqweFUYbqCkUHq-21" vertex="1">
          <mxGeometry y="90" width="160" height="8" as="geometry" />
        </mxCell>
        <mxCell id="Hqp2iDPqweFUYbqCkUHq-24" value="&amp;nbsp;+&amp;nbsp; startGame(): void" style="text;strokeColor=none;fillColor=none;align=left;verticalAlign=top;spacingLeft=4;spacingRight=4;overflow=hidden;rotatable=0;points=[[0,0.5],[1,0.5]];portConstraint=eastwest;whiteSpace=wrap;html=1;" parent="Hqp2iDPqweFUYbqCkUHq-21" vertex="1">
          <mxGeometry y="98" width="160" height="22" as="geometry" />
        </mxCell>
        <mxCell id="oO5J2J-j7TnRmZyRBJAW-5" value="&amp;nbsp;+&amp;nbsp; endGame(): void" style="text;strokeColor=none;fillColor=none;align=left;verticalAlign=top;spacingLeft=4;spacingRight=4;overflow=hidden;rotatable=0;points=[[0,0.5],[1,0.5]];portConstraint=eastwest;whiteSpace=wrap;html=1;" vertex="1" parent="Hqp2iDPqweFUYbqCkUHq-21">
          <mxGeometry y="120" width="160" height="22" as="geometry" />
        </mxCell>
        <mxCell id="cb0f6lu0sOfG4pyCu2vx-7" value="ScoreMaster" style="swimlane;fontStyle=1;align=center;verticalAlign=top;childLayout=stackLayout;horizontal=1;startSize=26;horizontalStack=0;resizeParent=1;resizeParentMax=0;resizeLast=0;collapsible=1;marginBottom=0;whiteSpace=wrap;html=1;" parent="1" vertex="1">
          <mxGeometry x="660" y="20" width="170" height="78" as="geometry" />
        </mxCell>
        <mxCell id="cb0f6lu0sOfG4pyCu2vx-8" value="&lt;div&gt;&lt;span style=&quot;background-color: transparent; color: light-dark(rgb(0, 0, 0), rgb(255, 255, 255));&quot;&gt;+&amp;nbsp; values: List&amp;lt;Integer&amp;gt; [RO]&lt;/span&gt;&lt;/div&gt;&lt;div&gt;+&amp;nbsp; bankScore: int [RO]&lt;/div&gt;" style="text;strokeColor=none;fillColor=none;align=left;verticalAlign=top;spacingLeft=4;spacingRight=4;overflow=hidden;rotatable=0;points=[[0,0.5],[1,0.5]];portConstraint=eastwest;whiteSpace=wrap;html=1;" parent="cb0f6lu0sOfG4pyCu2vx-7" vertex="1">
          <mxGeometry y="26" width="170" height="44" as="geometry" />
        </mxCell>
        <mxCell id="cb0f6lu0sOfG4pyCu2vx-9" value="" style="line;strokeWidth=1;fillColor=none;align=left;verticalAlign=middle;spacingTop=-1;spacingLeft=3;spacingRight=3;rotatable=0;labelPosition=right;points=[];portConstraint=eastwest;strokeColor=inherit;" parent="cb0f6lu0sOfG4pyCu2vx-7" vertex="1">
          <mxGeometry y="70" width="170" height="8" as="geometry" />
        </mxCell>
        <mxCell id="cb0f6lu0sOfG4pyCu2vx-15" value="" style="endArrow=diamondThin;endFill=1;endSize=24;html=1;rounded=0;entryX=1.013;entryY=0.835;entryDx=0;entryDy=0;entryPerimeter=0;exitX=0;exitY=0.658;exitDx=0;exitDy=0;exitPerimeter=0;" parent="1" source="Hqp2iDPqweFUYbqCkUHq-18" target="Hqp2iDPqweFUYbqCkUHq-2" edge="1">
          <mxGeometry width="160" relative="1" as="geometry">
            <mxPoint x="340" y="130" as="sourcePoint" />
            <mxPoint x="500" y="130" as="targetPoint" />
          </mxGeometry>
        </mxCell>
        <mxCell id="cb0f6lu0sOfG4pyCu2vx-17" value="" style="endArrow=none;html=1;edgeStyle=orthogonalEdgeStyle;rounded=0;entryX=-0.015;entryY=0.266;entryDx=0;entryDy=0;entryPerimeter=0;exitX=0.5;exitY=0;exitDx=0;exitDy=0;" parent="1" source="Hqp2iDPqweFUYbqCkUHq-13" target="Hqp2iDPqweFUYbqCkUHq-22" edge="1">
          <mxGeometry relative="1" as="geometry">
            <mxPoint x="340" y="130" as="sourcePoint" />
            <mxPoint x="500" y="130" as="targetPoint" />
          </mxGeometry>
        </mxCell>
        <mxCell id="cb0f6lu0sOfG4pyCu2vx-20" value="" style="endArrow=none;html=1;edgeStyle=orthogonalEdgeStyle;rounded=0;entryX=0.5;entryY=0;entryDx=0;entryDy=0;exitX=0.5;exitY=1;exitDx=0;exitDy=0;dashed=1;endFill=0;startFill=0;startArrow=open;" parent="1" source="cb0f6lu0sOfG4pyCu2vx-7" target="Hqp2iDPqweFUYbqCkUHq-17" edge="1">
          <mxGeometry relative="1" as="geometry">
            <mxPoint x="730" y="140" as="sourcePoint" />
            <mxPoint x="500" y="130" as="targetPoint" />
          </mxGeometry>
        </mxCell>
        <mxCell id="oO5J2J-j7TnRmZyRBJAW-4" value="" style="endArrow=none;html=1;rounded=0;exitX=1;exitY=0.5;exitDx=0;exitDy=0;entryX=0;entryY=0.5;entryDx=0;entryDy=0;edgeStyle=orthogonalEdgeStyle;" edge="1" parent="1" source="Hqp2iDPqweFUYbqCkUHq-14" target="Hqp2iDPqweFUYbqCkUHq-1">
          <mxGeometry width="50" height="50" relative="1" as="geometry">
            <mxPoint x="400" y="230" as="sourcePoint" />
            <mxPoint x="450" y="180" as="targetPoint" />
          </mxGeometry>
        </mxCell>
      </root>
    </mxGraphModel>
  </diagram>
